<svg width="90" height="90" viewBox="0 0 110 111" fill="none" xmlns="http://www.w3.org/2000/svg">
<path d="M54.9 111C49.9 111 45 110.3 40.3 109C30 106.2 20.9 100.4 13.8 92.4C12.7 91.1 11.6 89.8 10.7 88.5C3.7 79 0 67.7 0 55.9C0 25.6 24.7 0.900024 55 0.900024C85.3 0.900024 110 25.6 110 55.9C110 62.8 108.7 69.4 106.3 75.8C105.7 77.4 105 79 104.2 80.6C97.2 94.6 84.5 104.9 69.4 109C64.6 110.4 59.8 111 54.9 111Z" fill="#C6234C"/>
<path d="M54.8999 11C30.0999 11 9.8999 31.2 9.8999 56C9.8999 61.3 10.7999 66.4 12.4999 71.2L31.7999 53.9C35.6999 51 41.1999 51.3 44.6999 54.8L51.2999 61.4L61.4999 51.2L58.4999 48.2C56.7999 46.5 57.3999 43.6 59.5999 42.7L82.6999 33.5C85.3999 32.4 88.0999 35.1 87.0999 37.9L77.8999 61C76.9999 63.2 74.0999 63.8 72.3999 62.1L69.1999 58.9L58.1999 69.9C54.3999 73.7 48.0999 73.7 44.2999 69.9L37.6999 63.3L17.5999 81.3C17.8999 81.8 18.1999 82.2 18.5999 82.7C19.3999 83.8 20.1999 84.8 21.0999 85.8C26.7999 92.3 34.2999 97 42.7999 99.4C46.5999 100.4 50.5999 101 54.7999 101C58.8999 101 62.7999 100.5 66.4999 99.4C78.9999 96.1 89.2999 87.4 94.9999 76.1C95.5999 74.8 96.1999 73.5 96.6999 72.2C98.6999 67.2 99.6999 61.7 99.6999 55.9C99.8999 31.2 79.6999 11 54.8999 11Z" fill="white"/>
</svg>
