<svg width="90" height="90" viewBox="0 0 111 111" fill="none" xmlns="http://www.w3.org/2000/svg">
<path d="M55.6 111C50.6 111 45.7 110.3 41 109C30.7 106.2 21.6 100.4 14.5 92.3999C13.4 91.0999 12.3 89.7999 11.4 88.4999C4.40001 78.9999 0.700012 67.6999 0.700012 55.8999C0.700012 25.5999 25.4 0.899902 55.7 0.899902C86 0.899902 110.7 25.5999 110.7 55.8999C110.7 62.7999 109.4 69.3999 107 75.7999C106.4 77.3999 105.7 78.9999 104.9 80.5999C97.9 94.5999 85.2 104.9 70.1 109C65.3 110.4 60.5 111 55.6 111Z" fill="#C6234C"/>
<path d="M55.6 11C30.8 11 10.6 31.2 10.6 56C10.6 66 13.9 75.2 19.4 82.7C20.2 83.8 21 84.8 21.9 85.8C27.6 92.2 35.1 97 43.6 99.4C47.4 100.4 51.4 101 55.6 101C59.7 101 63.6 100.5 67.3 99.4C79.8 96.1 90.1 87.5 95.8 76.1C96.4 74.8 97 73.5 97.5 72.2C99.5 67.2 100.5 61.7 100.5 55.9C100.6 31.2 80.4 11 55.6 11ZM44.1 32.8C44.3 31.7 44.8 30.6 45.7 29.8C46.7 28.7 48.1 28.2 49.7 28.2H51.7V26.5C51.7 24.2 53.5 22.3 55.7 22.3H55.9C56.9 22.3 57.8 22.8 58.5 23.5C59.3 24.2 59.7 25.3 59.7 26.3V28.2H61.7C64.4 28.2 66.8 30.2 67.2 32.8C67.3 33.1 67.3 33.5 67.3 33.8C67.3 35.3 66.7 36.7 65.6 37.8C64.5 38.8 63.1 39.4 61.6 39.4H49.5C46.4 39.4 43.9 36.9 43.9 33.8C44 33.5 44 33.2 44.1 32.8ZM76.6 81.4C76.6 83.6 74.8 85.3 72.7 85.3H38.6C36.4 85.3 34.7 83.5 34.7 81.4V37C34.7 34.8 36.5 33.1 38.6 33.1H42.5C42.5 33.4 42.5 33.6 42.5 33.9C42.5 37.8 45.7 41.1 49.7 41.1H61.8C63.7 41.1 65.5 40.3 66.9 39C68.2 37.7 69 35.8 69 33.9C69 33.6 69 33.4 69 33.1H72.9C75.1 33.1 76.8 34.9 76.8 37V81.4H76.6V81.4Z" fill="white"/>
<path d="M55.6001 25.5C54.9001 25.5 54.3 26.1 54.3 26.8C54.3 27.5 54.9001 28.1 55.6001 28.1C56.3001 28.1 56.9001 27.5 56.9001 26.8C56.9001 26.1 56.3001 25.5 55.6001 25.5ZM55.6001 27.1C55.4001 27.1 55.3 27 55.3 26.8C55.3 26.6 55.4001 26.5 55.6001 26.5C55.8001 26.5 55.9001 26.6 55.9001 26.8C55.9001 27 55.8001 27.1 55.6001 27.1Z" fill="white"/>
<path d="M56.9001 26.8C56.9001 27.5 56.3001 28.1 55.6001 28.1C54.9001 28.1 54.3 27.5 54.3 26.8C54.3 26.1 54.9001 25.5 55.6001 25.5C56.3001 25.5 56.9001 26.1 56.9001 26.8Z" fill="white"/>
<path d="M69.4001 53.7H41.8C40.1 53.7 38.8 52.4 38.8 50.7C38.8 49 40.1 47.7 41.8 47.7H69.4001C71.1001 47.7 72.4001 49 72.4001 50.7C72.4001 52.4 71.1001 53.7 69.4001 53.7Z" fill="white"/>
<path d="M69.4001 66.8999H41.8C40.1 66.8999 38.8 65.5999 38.8 63.8999C38.8 62.1999 40.1 60.8999 41.8 60.8999H69.4001C71.1001 60.8999 72.4001 62.1999 72.4001 63.8999C72.4001 65.5999 71.1001 66.8999 69.4001 66.8999Z" fill="white"/>
<path d="M69.4001 80.2H41.8C40.1 80.2 38.8 78.9 38.8 77.2C38.8 75.5 40.1 74.2 41.8 74.2H69.4001C71.1001 74.2 72.4001 75.5 72.4001 77.2C72.4001 78.9 71.1001 80.2 69.4001 80.2Z" fill="white"/>
</svg>
