<svg width="90" height="90" viewBox="0 0 111 111" fill="none" xmlns="http://www.w3.org/2000/svg">
<path d="M55.7999 110.7C50.7999 110.7 45.8999 110 41.1999 108.7C30.8999 105.9 21.7999 100.1 14.6999 92.1C13.5999 90.8 12.4999 89.5 11.5999 88.2C4.59991 78.7 0.899902 67.4 0.899902 55.6C0.899902 25.3 25.5999 0.599976 55.8999 0.599976C86.1999 0.599976 110.9 25.3 110.9 55.6C110.9 62.5 109.6 69.1 107.2 75.5C106.6 77.1 105.9 78.7 105.1 80.3C98.0999 94.3 85.3999 104.6 70.2999 108.7C65.4999 110 60.6999 110.7 55.7999 110.7Z" fill="#C6234C"/>
<path d="M58.1998 41.7H53.7998C53.2998 41.7 52.7998 41.9999 52.5998 42.4999L47.2998 55.5999C48.5998 56.0999 49.6998 57.0999 50.1998 58.4999C50.2998 58.6999 50.5998 58.6999 50.5998 58.4999C51.3998 56.5999 53.2998 55.2999 55.5998 55.2999C57.9998 55.2999 60.0998 56.7999 60.6998 58.7999C60.7998 58.9999 61.0998 58.9999 61.1998 58.7999C61.6998 57.1999 62.9998 55.8999 64.6998 55.4999L59.3998 42.4999C59.1998 41.9999 58.7998 41.7 58.1998 41.7Z" fill="white"/>
<path d="M57.5998 10.9999C31.9998 9.99994 10.7998 30.4999 10.7998 55.9999C10.7998 75.4999 23.1998 92.0999 40.5998 98.2999V64.3999C40.5998 62.2999 40.9998 60.2999 41.7998 58.3999L54.0998 29.9999C54.3998 29.2999 55.0998 28.8999 55.7998 28.8999C56.4998 28.8999 57.1998 29.2999 57.4998 29.9999L69.7998 58.3999C70.5998 60.2999 70.9998 62.2999 70.9998 64.3999V98.2999C89.0998 91.7999 101.9 73.8999 100.7 53.2999C99.3998 30.3999 80.5998 11.8999 57.5998 10.9999Z" fill="white"/>
</svg>
