<svg width="90" height="90" viewBox="0 0 111 111" fill="none" xmlns="http://www.w3.org/2000/svg">
<path d="M55.5 110.6C50.5 110.6 45.6 109.9 40.9 108.6C30.6 105.8 21.5 100 14.4 92C13.3 90.7 12.2 89.4 11.3 88.1C4.29997 78.6 0.599976 67.3 0.599976 55.5C0.599976 25.2 25.3 0.5 55.6 0.5C85.9 0.5 110.6 25.2 110.6 55.5C110.6 62.4 109.3 69 106.9 75.4C106.3 77 105.6 78.6 104.8 80.2C97.8 94.2 85.1 104.5 70 108.6C65.2 109.9 60.3 110.6 55.5 110.6Z" fill="#C6234C"/>
<path d="M55.4999 40.5C49.6999 40.5 44.6999 43.8 42.1999 48.5C41.8999 49.1 42.2999 49.9 43.0999 49.9H69.5999C67.1999 44.4 61.7999 40.5 55.4999 40.5Z" fill="white"/>
<path d="M55.5 10.6C30.7 10.6 10.5 30.8 10.5 55.6C10.5 65.6 13.8 74.8 19.3 82.3C20.1 83.4 20.9 84.4 21.8 85.4C27.5 91.9 35 96.6 43.5 99C47.3 100 51.3 100.6 55.5 100.6C59.6 100.6 63.5 100.1 67.2 99.1C79.7 95.8 90 87.1 95.7 75.8C96.3 74.5 96.9 73.2 97.4 71.9C99.4 66.9 100.4 61.4 100.4 55.6C100.5 30.8 80.3 10.6 55.5 10.6ZM81.6 58.6C81.4 60.1 80.2 61.3 78.6 61.3H69.4H42.9C42.2 61.3 41.7 62.1 42 62.7C42.8 64.3 44 65.7 45.3 66.9C48 69.3 51.5 70.7 55.3 70.7C59.1 70.7 62.7 69.3 65.3 66.9H73.8C76.3 66.9 77.7 69.7 76.2 71.7C71.4 78 63.8 82 55.3 82C42.7 82 32.1 73.1 29.6 61.3C29.2 59.5 29 57.6 29 55.7C29 53.8 29.2 51.9 29.6 50.1C32.2 38.3 42.7 29.4 55.3 29.4C67.9 29.4 78.5 38.3 81 50.1C81.4 51.9 81.6 53.8 81.6 55.7C81.8 56.6 81.7 57.6 81.6 58.6Z" fill="white"/>
</svg>
