<svg width="90" height="90" viewBox="0 0 111 111" fill="none" xmlns="http://www.w3.org/2000/svg">
<path d="M55.6 110.4C50.6 110.4 45.7 109.7 41 108.4C30.7 105.6 21.6 99.8 14.5 91.8C13.4 90.5 12.2999 89.2001 11.3999 87.9001C4.39995 78.4001 0.699951 67.1 0.699951 55.3C0.699951 25 25.4 0.300049 55.7 0.300049C86 0.300049 110.7 25 110.7 55.3C110.7 62.2 109.4 68.8001 107 75.2001C106.4 76.8001 105.7 78.4001 104.9 80.0001C97.8999 94.0001 85.2 104.3 70.1 108.4C65.3 109.8 60.5 110.4 55.6 110.4Z" fill="#C6234C"/>
<path d="M55.5999 10.4C30.7999 10.4 10.5999 30.6 10.5999 55.4C10.5999 65.4 13.8998 74.6 19.3998 82.1C20.1998 83.2 20.9998 84.2 21.8998 85.2C27.5998 91.7 35.0999 96.4 43.5999 98.8C47.3999 99.8 51.3999 100.4 55.5999 100.4C59.6999 100.4 63.5998 99.9 67.2998 98.9C79.7998 95.6 90.0998 86.9 95.7998 75.6C96.3998 74.3 96.9998 73 97.4998 71.7C99.4998 66.7 100.5 61.2 100.5 55.4C100.6 30.6 80.3999 10.4 55.5999 10.4Z" fill="white"/>
<path d="M79.1998 53.4C81.3998 53.4 83.1998 51.5 82.9998 49.3C82.8998 47.3 81.0998 45.7 78.9998 45.7H61.5998H58.8997C57.9997 45.7 57.4997 44.8 57.8997 44L60.9998 37.9C60.9998 37.9 62.8997 31.1 59.8997 25.8C56.8997 20.5 54.2997 25.8 54.2997 25.8C54.6997 30.1 51.9998 35 51.9998 35C49.0998 36.8 46.7998 39.3 45.1998 41.5C43.4998 43.8 42.4998 46.6 42.4998 49.4V72.1C42.4998 74.4 44.3998 76.3 46.6998 76.3H61.5998H71.9998C74.0998 76.3 75.7998 74.8 75.9998 72.7C76.0998 70.5 74.3998 68.6 72.1998 68.6H74.9998C76.9998 68.6 78.7998 67.1 78.9998 65C79.0998 63.2 77.9997 61.6 76.3997 61.1H77.1998C79.2998 61.1 80.9998 59.6 81.1998 57.5C81.2998 55.3 79.5997 53.4 77.3997 53.4H79.1998Z" fill="#C6234C"/>
<path d="M34.8998 78.1001H34.3998C31.9998 78.1001 30.0999 76.2001 30.0999 73.8001V46.4001C30.0999 44.0001 31.9998 42.1001 34.3998 42.1001H34.8998C37.2998 42.1001 39.1999 44.0001 39.1999 46.4001V73.8001C39.0999 76.2001 37.1998 78.1001 34.8998 78.1001Z" fill="#C6234C"/>
</svg>
