<svg width="90" height="90" viewBox="0 0 110 111" fill="none" xmlns="http://www.w3.org/2000/svg">
<path d="M55.1 0.400024C24.8 0.400024 0.0999756 25.1 0.0999756 55.4C0.0999756 67.2 3.79996 78.5 10.8 88C11.7 89.3 12.8 90.6 13.9 91.9C21 99.9 30.1 105.6 40.4 108.5C45.2 109.8 50.1 110.5 55 110.5C59.9 110.5 64.7 109.9 69.3 108.6C84.4 104.5 97.1 94.2 104.1 80.2C104.9 78.6 105.6 77 106.3 75.4C108.8 69.1 110 62.4 110 55.5C110.1 25.1 85.4 0.400024 55.1 0.400024ZM29.4 76C29.1 75.3 28.8 74.7 28.6 73.9V73.8C28.5 73.5 28.5 73.3 28.4 73C28.3 72.3 28.2 71.5 28.2 70.8V40C28.2 33.7 33.4 28.5 39.7 28.5H70.5C76.8 28.5 82 33.7 82 40V70.8C82 77.2 76.8 82.3 70.5 82.3H39.7C35.2 82.3 31.3 79.8 29.4 76Z" fill="#C6234C"/>
<path d="M55.1 10.4C30.3 10.4 10.1 30.6 10.1 55.4C10.1 65.4 13.4 74.6 18.9 82.1C19.7 83.2 20.5 84.2 21.4 85.2C27.1 91.6 34.6 96.4 43.1 98.8C46.9 99.8 50.9 100.4 55.1 100.4C59.2 100.4 63.1 99.9 66.8 98.8C79.3 95.5 89.6 86.9 95.3 75.5C95.9 74.2 96.5 72.9 97 71.6C99 66.6 100 61.1 100 55.3C100.1 30.6 79.9 10.4 55.1 10.4ZM82 70.8C82 77.2 76.8 82.3 70.5 82.3H39.7C35.2 82.3 31.3 79.7 29.4 76C29.1 75.3 28.8 74.7 28.6 73.9V73.8C28.5 73.5 28.5 73.3 28.4 73C28.3 72.3 28.2 71.5 28.2 70.8V40C28.2 33.7 33.4 28.5 39.7 28.5H70.5C76.8 28.5 82 33.7 82 40V70.8Z" fill="white"/>
<path d="M81.9999 40V70.8C81.9999 77.2 76.7999 82.3 70.4999 82.3H39.7C35.2 82.3 31.2999 79.7 29.3999 76C29.0999 75.3 28.7999 74.7 28.5999 73.9V73.8C28.4999 73.5 28.4999 73.3 28.3999 73C28.2999 72.3 28.2 71.5 28.2 70.8V40C28.2 33.7 33.4 28.5 39.7 28.5H70.4999C76.7999 28.5 81.9999 33.7 81.9999 40Z" fill="#C6234C"/>
<path d="M45.0999 38.6L69.8999 52.9C71.7999 54 71.7999 56.8 69.8999 58L45.0999 72.3C43.1999 73.4 40.7 72 40.7 69.8V41.2C40.7 38.9 43.1999 37.5 45.0999 38.6Z" fill="white"/>
</svg>
